# xmcd
#
# Track frame offsets:
# 225
# 19325
# 46175
# 67025
# 91775
# 111950
# 137375
# 162800
# 184250
# 204575
#
# Disc length: 3127 seconds
#
#
# Revision: 3
# Processed by: cddbd v1.4PL0 Copyright (c) Steve Scherf et al.
# Submitted via: FreeRIP 2.21 
#
DISCID=830c340a
DTITLE=Koko Taylor and Her Blues Machine - An audience with the queen (Live from Chicago)
DYEAR=1987
DGENRE=Blues
TTITLE0=Let The Good Times Roll
TTITLE1=I'm A Woman
TTITLE2=Going Back to Iuka
TTITLE3=The Devil's Gonna Have A Field Day
TTITLE4=Find A Fool, Bump Her Head
TTITLE5=I Cried Like A Baby
TTITLE6=Come To Mama
TTITLE7=I'd Rather Go Blind
TTITLE8=Let Me Love You
TTITLE9=Wang Dang Doodle
EXTD=YEAR: 1987 ID3G: 0
EXTT0=
EXTT1=
EXTT2=
EXTT3=
EXTT4=
EXTT5=
EXTT6=
EXTT7=
EXTT8=
EXTT9=
PLAYORDER=
